<svg xmlns="http://www.w3.org/2000/svg"><symbol id="award" viewBox="0 0 1860 1910"><path fill-rule="nonzero" d="M454 529c-8 0-15-2-22-6L18 272c-19-12-26-38-14-58 12-19 37-26 57-14l414 251c20 12 26 38 14 58-7 13-21 20-35 20zm952 0c-14 0-28-7-35-20-12-20-6-46 14-58l414-251c20-12 45-5 57 14 12 20 5 46-14 58l-414 251c-7 4-14 6-22 6zM619 1912c-5 0-10-1-15-3-16-7-26-22-26-39v-754c0-23 19-42 41-42 23 0 42 19 42 42v653l225-228c16-16 41-16 57-1l256 235v-492c0-23 19-42 42-42 22 0 41 19 41 42v587c0 16-10 31-25 38s-32 4-44-7l-296-273-268 271c-8 8-19 13-30 13zm314-629c-69 0-128-42-151-108l-3-10c-14-42-64-64-105-45l-9 4c-73 35-161 7-203-61-29-48-32-104-7-156l4-9c10-20 10-42 2-63-8-20-24-36-45-43l-9-4c-64-24-105-84-105-153 1-69 43-128 108-151l9-3c21-8 37-23 46-43 8-21 8-43-1-63l-5-9c-23-51-20-108 10-155 43-67 132-94 205-59l9 5c40 19 90-2 105-43l4-10C815 40 874-2 941-2c70 0 129 43 151 109l4 9c14 42 64 64 104 45l9-4c73-34 161-6 203 62 30 47 33 104 8 155l-4 9c-10 20-11 43-2 63 8 21 24 36 44 44l10 3c64 24 105 84 105 153-1 70-43 129-108 152l-9 3c-21 7-37 22-46 43-8 20-8 43 1 63l4 9c24 51 20 107-9 154-43 68-132 95-205 59l-9-4c-40-20-91 1-106 43l-3 9c-23 65-82 106-150 106zm-226-254c68 0 128 44 150 109l4 9c13 39 46 53 72 53s59-14 72-51l4-10c23-63 83-106 150-106 24 0 47 6 69 16l9 5c36 18 78 4 99-29 8-13 20-40 4-74l-4-9c-19-41-20-89-2-131s52-74 95-89l9-4c38-13 51-46 52-72 0-27-13-60-51-74l-9-3c-42-16-76-49-93-91-17-43-15-90 4-131l5-9c16-34 5-62-4-75-20-33-62-47-98-30l-9 4c-21 10-44 15-67 15-68 0-128-43-151-108l-3-10c-13-38-46-52-73-52-25 0-58 13-72 51l-3 9c-23 64-83 106-150 106-24 0-48-5-70-16l-8-4c-37-18-78-5-99 29-9 13-20 40-5 73l5 9c19 42 19 90 2 131-18 42-52 75-95 90l-9 3c-38 13-52 46-52 73 0 26 13 60 50 73l10 4c42 16 76 49 93 91s15 90-5 131l-4 9c-16 34-5 61 3 75 21 33 62 46 98 29l9-4c22-10 44-15 68-15z"/></symbol><symbol id="card" viewBox="0 0 1920 1460"><path fill-rule="nonzero" d="M1710 876h-292v-83h292v83zm-417 0h-291v-83h291v83zm-416 0H585v-83h292v83zm-417 0H168v-83h292v83zm1417-292H43c-23 0-41-19-41-42s18-41 41-41h1834c23 0 41 18 41 41s-18 42-41 42zm-167-250H43c-23 0-41-19-41-42s18-41 41-41h1667c23 0 42 18 42 41s-19 42-42 42zm21 1125H189c-103 0-187-84-187-187v-104c0-23 18-42 41-42s42 19 42 42v104c0 58 47 104 104 104h1542c57 0 104-46 104-104v-104c0-23 19-42 42-42s41 19 41 42v104c0 103-84 187-187 187zm0-166H189c-103 0-187-84-187-187V188C2 85 86 1 189 1h1542c103 0 187 84 187 187v918c0 103-84 187-187 187zM189 84c-57 0-104 46-104 104v918c0 57 47 103 104 103h1542c57 0 104-46 104-103V188c0-58-47-104-104-104H189z"/></symbol><symbol id="end-call" viewBox="0 0 860 850"><path fill-rule="nonzero" d="M166 52h3c15 22 96 143 111 166 0 2-1 8-5 17-5 9-20 36-42 74l-17 29 20 28c14 20 49 65 118 133s115 102 135 116l28 20 30-17c29-16 64-36 75-42 9-4 15-5 17-5h1c20 13 146 95 168 110 1 2 0 7-4 13-34 47-82 95-101 102-101-4-243-92-400-246C145 395 56 256 52 156c6-19 56-67 103-100 3-3 7-4 11-4zm0-52c-14 0-29 5-42 14-1 1-128 90-126 141 4 145 147 315 267 432 119 118 291 258 439 263h1c52 0 142-124 143-125 24-34 15-71-6-86-14-9-158-103-176-114-8-5-17-7-27-7-13 0-28 4-42 11-14 8-56 31-77 43-18-13-61-45-128-111s-99-108-112-126c11-20 35-62 42-75 14-26 16-52 5-69S220 33 210 20c-9-13-26-20-44-20z"/></symbol><symbol id="envelope" viewBox="0 0 990 660"><path fill-rule="nonzero" d="M917 54c17 0 16-2 16 15v491c0 17 1 46-16 46H103c-18 0-47-29-47-46V69c0-17 29-15 47-15h814zm-6-53H110C59 1 2 26 2 76v478c0 50 57 105 108 105h801c51 0 77-55 77-105V76c0-50-26-75-77-75z"/><path fill-rule="nonzero" d="M495 427c-7 0-14-2-20-7L20 83C8 73 6 55 17 43s31-13 43-3l435 322L930 40c12-10 32-9 43 3s9 30-3 40L515 420c-6 5-13 7-20 7z"/></symbol><symbol id="flag" viewBox="0 0 1200 1830"><path fill-rule="nonzero" d="M294 1832H40c-23 0-42-19-42-42v-333c0-23 19-42 42-42h254c23 0 42 19 42 42v333c0 23-19 42-42 42zm-211-83h169v-251H83v251zm84-251c-23 0-42-18-42-41V40c0-23 19-42 42-42s42 19 42 42v1417c0 23-19 41-42 41zM875 477c-16 0-30-8-38-22-11-20-3-46 18-56l131-67H252c-24 0-43-19-43-42s19-42 43-42h908c19 0 36 13 41 32 4 19-5 38-22 47L894 473c-6 3-13 4-19 4zm285 313H209c-23 0-42-19-42-42s19-41 42-41h769L539 494c-21-10-29-35-19-56 10-20 35-29 56-19l602 292c18 8 27 28 23 47-5 19-22 32-41 32z"/></symbol><symbol id="flower" viewBox="0 0 1740 1880"><path fill-rule="nonzero" d="M16 1878c-8 0-14-1-17-2l10-40 6-41c6-2 419-17 588-354l76 37c-174 345-572 400-663 400zm962-878c-93 0-168-75-168-167 0-93 75-168 168-168s168 75 168 168c0 92-75 167-168 167zm0-251c-46 0-84 38-84 84s38 83 84 83 84-37 84-83-38-84-84-84zm2 961c-45 0-85-25-103-67l-145-325c-5-11-15-18-27-18l-359 39c-49 5-92-19-114-61-19-38-15-83 10-117l212-287c7-11 7-24 0-35L242 552c-25-34-29-79-10-117 22-42 65-66 114-61l356 38c16 1 25-6 30-17L877 70c18-42 58-68 103-68 46 0 86 26 104 68l145 325c4 11 15 17 26 17l360-38c49-5 92 19 114 61 19 38 15 83-10 117l-212 287c-7 11-7 24 0 35l212 287c25 34 29 79 10 117-22 42-65 66-114 61l-356-38c-15-1-25 6-30 17l-145 325c-18 42-58 67-104 67zm-275-493c45 0 86 26 104 67l145 326c7 15 21 17 26 17 6 0 20-2 27-17l145-326c20-45 66-72 116-67l356 39c19 0 28-12 29-16 3-5 7-17-2-30l-212-287c-29-40-29-93 0-133l212-287c9-13 5-26 2-30-1-4-9-16-25-16l-360 38c-49 6-96-22-116-66l-145-326c-7-15-21-17-27-17-5 0-19 2-26 17L809 429c-20 44-66 72-116 66l-356-38c-19-1-28 12-30 16s-7 17 3 30l212 287c29 40 29 93 0 133l-212 287c-10 13-5 25-3 30 2 4 10 16 26 16l360-39h12z"/></symbol><symbol id="gates" viewBox="0 0 3250 2080"><path fill-rule="nonzero" d="M3212 260h-82C3111 113 2988-2 2839-2s-273 115-291 262h-83c-21 0-38 18-38 39v208c0 21 17 39 38 39h80v99h-154V446c0-21-17-39-38-39s-38 18-38 39v137c-39-38-94-84-167-128V329c0-21-17-39-38-39s-38 18-38 39v85c-49-23-104-44-166-61V251c0-21-17-39-38-39s-38 18-38 39v85c-52-10-108-16-167-18V123c0-21-17-39-38-39s-38 18-38 39v195c-59 2-115 8-167 18v-85c0-21-17-39-38-39s-38 18-38 39v102c-62 17-117 38-166 61v-85c0-21-17-39-38-39s-38 18-38 39v126c-73 44-128 90-167 128V446c0-21-17-39-38-39s-38 18-38 39v199H705v-99h80c21 0 38-18 38-39V299c0-21-17-39-38-39h-83C684 113 560-2 411-2S139 113 120 260H38c-21 0-38 18-38 39v208c0 21 17 39 38 39h80v1497c0 21 17 39 38 39h511c21 0 38-18 38-39v-76h1840v76c0 21 17 39 38 39h511c21 0 38-18 38-39V546h80c21 0 38-18 38-39V299c0-21-17-39-38-39zM411 76c107 0 197 80 215 184H197C215 156 304 76 411 76zm218 815H517c-21 0-38 18-38 39 0 22 17 39 38 39h112v373H517c-21 0-38 18-38 39 0 22 17 39 38 39h112v373H517c-21 0-38 18-38 39 0 22 17 39 38 39h112v133H194v-358h112c21 0 38-18 38-39 0-22-17-39-38-39H194v-373h112c21 0 38-18 38-39 0-22-17-39-38-39H194V744h112c21 0 38-18 38-39 0-22-17-39-38-39H194V546h435v345zM76 468V338h671v130H76zm783 1421H705v-96h154v96zm0-174H705V887h154v828zm0-906H705v-86h154v86zm243 1080H935v-96h167v96zm0-174H935V862c18-24 73-87 167-150v1003zm0-1096c-73 43-128 90-167 128v-49c18-24 73-87 167-150v71zm561-223c60 2 115 9 167 20v84c-52-10-108-16-167-18v-86zm167 184v471h-167V560c60 2 115 9 167 20zm0 656h-410v-107h410v107zm-410-820c52-11 107-18 167-20v86c-59 2-115 8-167 18v-84zm167 144v491h-167V580c52-11 107-18 167-20zm-409-58c48-25 103-49 166-67v82c-62 17-117 38-166 61v-76zm166 1387h-166v-96h166v96zm0-174h-166V666c48-25 103-49 166-67v1116zm243 174h-167v-96h167v96zm-167-174v-401h167v401h-167zm410 174h-167v-96h167v96zm-167-174v-401h167v401h-167zm409 174h-166v-96h166v96zm0-174h-166V599c63 18 118 42 166 68v1048zm0-1137c-49-23-104-44-166-61v-82c63 18 118 42 166 68v75zm243 1311h-167v-96h167v96zm0-174h-167V712c94 63 149 126 167 150v853zm0-968c-39-38-94-85-167-128v-71c94 63 149 126 167 150v49zm230 1142h-154v-96h154v96zm0-174h-154V887h154v828zm0-906h-154v-86h154v86zm294-733c107 0 196 80 214 184h-429c18-104 108-184 215-184zm217 590h-112c-21 0-38 17-38 39 0 21 17 39 38 39h112v373h-112c-21 0-38 17-38 39 0 21 17 39 38 39h112v373h-112c-21 0-38 17-38 39 0 21 17 39 38 39h112v358h-435v-133h112c21 0 38-17 38-39 0-21-17-39-38-39h-112v-373h112c21 0 38-17 38-39 0-21-17-39-38-39h-112V969h112c21 0 38-17 38-39 0-21-17-39-38-39h-112V546h435v120zm118-198h-671V338h671v130z"/></symbol><symbol id="home" viewBox="0 0 2830 3161"><path fill-rule="nonzero" d="M2125 650c8 5 18 7 28 7s20-2 29-7c129-71 222-151 277-238 63-100 60-184 46-237C2479 72 2391 0 2292 0c-51 0-99 20-139 55-39-35-87-55-138-55-100 0-187 72-214 175-13 53-16 137 47 237 54 87 147 167 277 238zm-208-446c13-48 54-84 98-84 33 0 64 21 87 59 11 18 30 29 51 29s41-11 51-29c24-38 54-59 88-59 44 0 85 36 97 84 20 80-32 205-236 324-203-119-256-244-236-324zm-748 1552c-156 0-294 114-335 276-22 85-26 222 76 386 93 148 253 285 476 406 9 5 19 8 29 8s20-3 29-8c222-121 383-258 476-406 102-164 98-301 76-386-41-162-179-276-335-276-93 0-179 41-246 116-67-75-153-116-246-116zm711 305c20 79 44 354-465 642-509-288-485-563-465-642 27-107 119-185 219-185 76 0 145 45 195 128 11 18 30 29 51 29s40-11 51-29c50-83 119-128 195-128 100 0 192 78 219 185zm927-357l-409-314c1-4 1-8 1-12V834c0-33-27-60-60-60h-372c-33 0-60 27-60 60v178l-456-350c-21-16-51-16-72 0L23 1704c-20 16-28 42-20 67 8 24 31 40 57 40h371v1092c0 142 115 258 257 258h1454c142 0 257-116 257-258V1811h371c26 0 49-16 57-40 8-25 0-51-20-67zm-780-810h253v405l-253-194V894zm253 2009c0 76-62 138-138 138H688c-76 0-138-62-138-138V1781l865-655 865 655v1122zm80-1211l-909-689c-21-16-51-16-72 0l-909 689H236l1179-907 1179 907h-234z"/></symbol><symbol id="mobile" viewBox="0 0 970 1310"><path fill-rule="nonzero" d="M159 396c-7 2-15 1-22-3-13-8-18-25-10-39l71-122c8-13 25-18 39-10 13 7 18 25 10 38l-71 122c-4 7-10 12-17 14zm88 96c-7 2-15 1-22-2-13-8-18-25-10-39l128-220c8-14 25-18 39-10 13 7 18 25 10 38L264 479c-4 7-10 11-17 13zm413 598c-8-30-39-48-69-40s-48 39-40 69 39 48 69 40 48-39 40-69zm220 87l-476 127c-65 18-133-21-150-86L3 283c-17-65 22-132 87-150L566 6c65-18 133 21 150 86l251 935c17 65-22 132-87 150zM105 188c-35 9-56 45-47 80l251 936c9 35 45 55 80 46l476-128c35-9 56-45 47-80L661 106c-9-35-45-55-80-46L105 188zm725 769l-466 124c-15 5-31-4-35-19s5-31 21-35l438-118-109-408c-4-15 5-31 20-35s31 5 35 20l116 436c4 15-5 31-20 35z"/></symbol><symbol id="mouse" viewBox="0 0 1370 2210"><path fill-rule="nonzero" d="M1233 213C1112 72 927 1 685 1S258 72 137 213-2 520-2 606v998c0 86 18 252 139 393s306 212 548 212 427-71 548-212 139-307 139-393V606c0-86-18-252-139-393zM685 770c-50 0-91-40-91-90V487c0-50 41-90 91-90s91 40 91 90v193c0 50-41 90-91 90zm615 834c0 89-29 534-615 534S70 1693 70 1604V606c0-87 28-515 579-533v256c-73 17-127 81-127 158v193c0 77 54 141 127 157v293c0 20 16 36 36 36s36-16 36-36V837c73-16 127-80 127-157V487c0-77-54-141-127-158V73c551 18 579 446 579 533v998z"/></symbol><symbol id="parking" viewBox="0 0 2500 1920"><path fill-rule="nonzero" d="M2269 1832h-311c4-5 8-11 11-17 19-35 13-80 13-119 56-20 96-74 96-138v-307c0-66-43-121-101-140l-155-410c-27-70-106-126-181-126H859c-75 0-154 56-181 126l-155 410c-58 19-101 74-101 140v307c0 65 42 120 100 140 0 38-6 82 13 117 3 6 7 12 11 17H258c-56 0-56 87 0 87h2011c56 0 56-87 0-87zm-439-126h66c2 33 9 85-33 85s-35-52-33-85zM759 732c14-37 61-70 100-70h782c39 0 86 33 100 70l140 371h-76l-92-271c-25-72-103-128-179-128H966c-76 0-154 56-179 128l-93 271h-75l140-371zm955 371H785l84-242c13-37 58-70 97-70h568c39 0 84 33 97 70l83 242zM508 1251c0-34 27-61 60-61h1364c33 0 60 27 60 61v307c0 34-27 61-60 61H568c-33 0-60-27-60-61v-307zm133 540c-42 0-35-52-33-85h65c3 33 10 85-32 85zm106 24c17-33 13-73 12-109h985c-1 36-4 76 13 109 3 6 7 12 12 17H735c4-5 8-11 12-17zM2479 713c-343-209-685-419-1028-628-44-28-91-64-142-77-84-22-151 10-219 51-189 116-379 232-568 348L21 713c-47 29-4 104 44 75 333-204 667-408 1000-612 38-23 77-53 118-72 85-39 141 5 209 46 190 117 381 233 572 350l471 288c48 29 91-46 44-75zm-772 869c98 4 172-71 183-165 1-4 1-8 1-13 0-6-1-12-3-17-12-88-80-160-173-160-96 0-177 81-177 177 0 94 77 174 169 178zm98-178c-7 116-180 117-180 0s173-116 180 0zM778 1582c97 4 171-71 182-165 1-4 1-8 1-13 0-6-1-12-2-17-13-88-81-160-174-160-96 0-176 81-176 177 0 94 76 174 169 178zm97-178c-7 116-180 117-180 0s173-116 180 0zm36-525l-63 180c-10 32 39 46 50 14l63-180c11-32-39-46-50-14z"/></symbol><symbol id="pin" viewBox="0 0 1500 1880"><path fill-rule="nonzero" d="M1208 794H917v-83h291v83zM750 961c-115 0-208-94-208-209 0-114 93-208 208-208s208 94 208 208c0 115-93 209-208 209zm0-334c-69 0-125 57-125 125 0 69 56 125 125 125s125-56 125-125c0-68-56-125-125-125zm0 626v-84c230 0 417-187 417-417 0-229-187-416-417-416S333 523 333 752h-83c0-275 224-500 500-500s500 225 500 500c0 276-224 501-500 501zm0 625C441 1878 0 1150 0 752 0 339 337 2 750 2s750 337 750 750c0 398-441 1126-750 1126zm0-1792C382 86 83 385 83 752c0 380 424 1042 667 1042s667-662 667-1042c0-367-299-666-667-666z"/></symbol><symbol id="rain" viewBox="0 0 1990 1670"><path fill-rule="nonzero" d="M746 1668c-23 0-42-18-42-41v-125c0-23 19-42 42-42s41 19 41 42v125c0 23-18 41-41 41zm0-291c-23 0-42-19-42-42v-125c0-23 19-42 42-42s41 19 41 42v125c0 23-18 42-41 42zM247 710c-23 0-41-19-41-42 0-184 149-333 332-333 23 0 42 19 42 42s-19 41-42 41c-137 0-249 112-249 250 0 23-19 42-42 42zm461-208c-19 0-36-14-40-34-4-16-5-33-5-50 0-138 111-250 249-250 23 0 41 19 41 42s-18 42-41 42c-92 0-166 74-166 166 0 11 1 23 3 34 5 22-10 44-32 49-3 0-6 1-9 1zM496 1502c-22 0-41-19-41-42v-127c0-45-37-81-81-81h-85c-8 0-15-2-22-6C114 1216-2 1081-2 918c0-23 19-41 42-41 22 0 41 18 41 41 0 138 112 250 249 250h44c90 0 164 74 164 165v127c0 23-19 42-42 42zm541 166c-23 0-42-18-42-41v-294c0-91 74-165 164-165h448c159 0 291-119 301-272 6-82-22-159-78-219-55-59-131-92-212-92-23 0-41-19-41-42 0-115-94-208-208-208-28 0-56 6-82 17-21 9-45-1-55-22-9-21 1-46 22-55 37-16 75-23 115-23 147 0 269 109 288 252 89 9 172 50 234 116 71 77 107 177 100 282-12 196-181 350-384 350h-448c-44 0-81 36-81 81v294c0 23-19 41-41 41zM538 460c-23 0-42-19-42-42C496 188 683 2 912 2c183 0 347 123 399 300 6 22-7 45-29 51-22 7-45-6-51-28-41-141-172-240-319-240-183 0-332 149-332 333 0 23-19 42-42 42z"/></symbol><symbol id="settings" viewBox="0 0 1830 1830"><path fill-rule="nonzero" d="M743 1242c-40-24-75-57-101-95l68-47c20 28 46 53 76 71l-43 71zm172 48v-83c138 0 250-112 250-250s-112-250-250-250-250 112-250 250h-83c0-184 149-334 333-334s333 150 333 334c0 183-149 333-333 333zm0 542c-111 0-202-87-208-197-53-15-105-37-154-64-82 73-208 71-286-8-79-78-81-204-8-286-27-49-48-100-64-154-109-6-197-97-197-208s88-202 197-208c16-54 37-105 64-154-73-82-71-208 8-286 78-79 204-81 286-8 49-27 101-49 154-64C713 85 804-2 915-2s202 87 208 197c54 15 105 37 154 64 82-73 208-71 286 8 79 78 81 204 8 286 27 49 48 100 64 154 109 6 197 97 197 208 0 115-94 208-209 208v-83c69 0 125-56 125-125s-56-125-125-125h-53l-8-32c-16-67-42-131-78-190l-18-28 38-38c49-48 49-128 0-176-49-49-128-49-177 0l-37 37-28-17c-59-36-123-62-190-78l-32-8v-53c0-69-56-125-125-125s-125 56-125 125v53l-32 8c-67 16-131 42-190 78l-28 17-37-37c-49-49-128-49-177 0-49 48-49 128 0 176l38 38-18 28c-36 59-62 123-78 190l-8 32h-53c-69 0-125 56-125 125s56 125 125 125h53l8 32c16 67 42 131 78 190l18 28-38 38c-49 48-49 128 0 176 49 49 128 49 177 0l37-37 28 17c59 36 123 62 190 78l32 8v53c0 69 56 125 125 125s125-56 125-125v-53l32-8c67-16 131-42 190-78l28-17 37 37c49 49 128 49 177 0 49-48 49-128 0-176l-7-8-8-25 67-19 7-7c1 1 3 2 4 3h2l2 5c73 81 71 208-8 286-78 79-204 81-286 8-49 27-100 49-154 64-6 110-97 197-208 197z"/></symbol><symbol id="sun" viewBox="0 0 1920 1920"><path fill-rule="nonzero" d="M1608 1650c-11 0-21-4-29-12l-177-177c-16-16-16-43 0-59s43-16 59 0l177 177c16 16 16 42 0 59-9 8-19 12-30 12zM489 530c-11 0-22-4-30-12L282 341c-16-16-16-43 0-59 17-16 43-16 59 0l177 177c16 16 16 43 0 59-8 8-19 12-29 12zm1388 472h-250c-23 0-42-19-42-42s19-42 42-42h250c23 0 41 19 41 42s-18 42-41 42zm-1584 0H43c-23 0-41-19-41-42s18-42 41-42h250c23 0 42 19 42 42s-19 42-42 42zm1138-472c-10 0-21-4-29-12-16-16-16-43 0-59l177-177c16-16 42-16 59 0 16 16 16 43 0 59l-177 177c-8 8-19 12-30 12zM312 1650c-11 0-21-4-30-12-16-17-16-43 0-59l177-177c16-16 43-16 59 0s16 43 0 59l-177 177c-8 8-18 12-29 12zm648 269c-23 0-42-19-42-42v-250c0-23 19-42 42-42s42 19 42 42v250c0 23-19 42-42 42zm0-1584c-23 0-42-19-42-42V43c0-23 19-42 42-42s42 19 42 42v250c0 23-19 42-42 42zM710 960h-83c0-184 149-333 333-333v83c-138 0-250 112-250 250zm250 542c-299 0-542-243-542-542s243-542 542-542 542 243 542 542c0 75-16 148-46 217l-76-34c25-57 38-119 38-183 0-253-205-458-458-458S502 707 502 960s205 458 458 458c67 0 131-14 191-41l35 76c-71 32-147 49-226 49z"/></symbol><symbol id="timber" viewBox="0 0 2960 1670"><path fill-rule="nonzero" d="M1110 1163H878c-24 0-43 20-43 44s19 43 43 43h232c24 0 43-19 43-43s-19-44-43-44zm324 0h-93c-24 0-43 20-43 44s19 43 43 43h93c24 0 43-19 43-43s-19-44-43-44zm787 0h-602c-24 0-43 20-43 44s19 43 43 43h602c24 0 43-19 43-43s-19-44-43-44zM971 931c-24 0-44 19-44 43s20 44 44 44h1065c24 0 43-20 43-44s-19-43-43-43H971zm1343 0h-93c-24 0-43 19-43 43s19 44 43 44h93c24 0 43-20 43-44s-19-43-43-43zm324 0h-139c-24 0-44 19-44 43s20 44 44 44h139c24 0 43-20 43-44s-19-43-43-43zM924 786h139c24 0 44-20 44-44s-20-43-44-43H924c-24 0-43 19-43 43s19 44 43 44zm324 0h834c24 0 43-20 43-44s-19-43-43-43h-834c-23 0-43 19-43 43s20 44 43 44zm1158-87h-139c-24 0-43 19-43 43s19 44 43 44h139c24 0 44-20 44-44s-20-43-44-43zM508 1284c28-83 43-193 43-310 0-67-5-132-15-193-4-23-26-39-50-35-24 3-40 26-36 50 9 55 14 115 14 178 0 258-73 375-95 375-5 0-25-11-48-66-9-22-34-33-56-24-23 9-33 35-24 57 41 99 92 120 128 120 40 0 97-26 139-152zm-227-175c-5-43-8-88-8-135 0-257 73-374 96-374 24 0 43-20 43-44s-19-43-43-43c-41 0-98 26-140 152-27 83-43 193-43 309 0 50 3 99 8 145 3 22 22 38 44 38h5c23-3 41-24 38-48zm2310-829h-926c-2 0-3 0-5 1L1531 48c-16-29-46-46-78-46h-153c-25 0-50 11-67 30s-25 44-22 70l20 178H369C163 280 1 585 1 974c0 390 162 694 368 694h2222c207 0 368-304 368-694 0-389-161-694-368-694zM178 1415c-58-117-90-274-90-441s32-323 90-440c53-106 122-167 191-167 68 0 137 61 190 167 58 117 90 273 90 440s-32 324-90 441c-53 106-122 166-190 166-69 0-138-60-191-166zm2413 166H550c112-117 186-342 186-607 0-264-74-489-186-607h690l12 101c2 24 24 41 48 39 23-3 41-25 38-49l-41-366s0-1 1-2 2-1 2-1h153c1 0 2 0 2 1l219 394c8 15 22 23 38 23 7 0 14-2 21-6 21-11 28-38 16-59l-41-75h883c69 0 138 61 191 167 58 117 90 273 90 440s-32 324-90 441c-53 106-122 166-191 166z"/></symbol><symbol id="window" viewBox="0 0 2000 1870"><path fill-rule="nonzero" d="M1000 706c-102 0-185-74-185-166s83-167 185-167 185 75 185 167-83 166-185 166zm0-249c-57 0-102 37-102 83s45 83 102 83c56 0 102-37 102-83s-46-83-102-83zm414 748h-249c-23 0-41-18-41-41s18-42 41-42h249c23 0 41 19 41 42s-18 41-41 41zm-953 666c-21 0-39-16-41-38l-83-915c-1-12 2-23 10-32 8-8 19-13 31-13h1243c12 0 23 5 31 13 8 9 12 20 11 32l-83 915c-2 22-20 38-42 38H627c-23 0-42-19-42-42v-665c0-23 19-42 42-42h373c22 0 41 19 41 42v374c0 23-19 42-41 42-23 0-42-19-42-42v-333H668v583h832l76-832H423l79 870c2 22-15 43-37 45h-4zM1621 665c-23 0-41-19-41-42V207c0-23 18-42 41-42s42 19 42 42v416c0 23-19 42-42 42zm336 291H43c-17 0-32-11-39-27-6-16-1-34 11-46L972 10c15-15 40-15 55 0l952 869c12 8 19 21 19 35 0 23-18 42-41 42zM150 873h1699L1000 97 150 873z"/></symbol></svg>