<?xml version="1.0" standalone="no"?>
<!DOCTYPE svg PUBLIC "-//W3C//DTD SVG 20010904//EN"
 "http://www.w3.org/TR/2001/REC-SVG-20010904/DTD/svg10.dtd">
<svg version="1.0" xmlns="http://www.w3.org/2000/svg"
 width="316.000000pt" height="316.000000pt" viewBox="0 0 316.000000 316.000000"
 preserveAspectRatio="xMidYMid meet">
<metadata>
Created by potrace 1.11, written by Peter Selinger 2001-2013
</metadata>
<g transform="translate(0.000000,316.000000) scale(0.100000,-0.100000)"
fill="#000000" stroke="none">
<path d="M2091 3140 c-87 -40 -133 -116 -135 -220 0 -56 5 -77 32 -133 51
-103 185 -226 298 -273 35 -15 37 -15 103 25 97 58 201 158 241 232 64 122 51
249 -35 328 -71 65 -169 78 -247 31 l-35 -20 -44 23 c-57 31 -121 33 -178 7z
m158 -145 c26 -25 56 -45 66 -45 9 0 34 18 54 40 26 29 48 42 74 47 32 5 41 1
72 -30 30 -30 35 -42 35 -81 0 -85 -71 -184 -191 -264 l-46 -31 -51 35 c-70
47 -137 115 -163 167 -40 77 -25 161 33 194 41 22 67 15 117 -32z"/>
<path d="M1518 2483 c-19 -16 -49 -39 -66 -52 -63 -48 -488 -373 -517 -396
-16 -13 -76 -59 -132 -102 -596 -458 -643 -496 -643 -517 0 -12 7 -32 16 -44
15 -21 20 -22 215 -22 l199 0 0 -565 c0 -540 1 -567 20 -618 23 -61 65 -109
124 -140 l41 -22 800 0 800 0 40 22 c47 25 95 74 121 123 21 40 23 105 24 808
l0 392 195 0 c182 0 196 1 215 20 21 21 25 46 11 69 -5 7 -100 84 -212 170
l-204 157 -5 289 c-3 197 -9 296 -17 310 -11 19 -23 20 -223 21 -266 1 -254 8
-252 -135 l1 -101 -27 19 c-15 10 -121 92 -237 180 -121 93 -218 161 -231 161
-12 0 -37 -12 -56 -27z m133 -166 c37 -28 146 -113 244 -187 97 -74 185 -142
195 -150 10 -8 162 -125 337 -260 l319 -245 -113 -3 -113 -3 -283 213 c-155
117 -284 215 -287 218 -4 5 -81 63 -300 228 -30 23 -64 42 -74 42 -11 0 -108
-67 -215 -148 -108 -81 -316 -239 -463 -350 l-268 -203 -113 3 -114 3 249 190
c137 105 255 195 261 200 7 6 41 33 77 60 36 27 67 52 70 55 3 3 61 48 130
100 69 52 181 138 250 192 69 53 130 97 135 98 6 0 40 -24 76 -53z m789 -249
c0 -109 -2 -198 -5 -198 -3 0 -60 41 -125 92 -126 96 -122 90 -122 173 0 14 0
49 1 78 l1 53 125 0 125 0 0 -198z m-677 -176 c100 -76 293 -223 430 -326
l247 -187 0 -576 c-1 -621 1 -601 -55 -653 l-27 -25 -766 -3 c-537 -2 -775 1
-793 9 -15 6 -40 24 -55 40 l-29 30 0 591 0 591 255 194 c140 107 271 205 290
219 19 13 96 71 170 128 74 58 139 105 143 105 5 1 90 -61 190 -137z"/>
<path d="M1298 1405 c-2 -2 -18 -5 -36 -8 -81 -13 -177 -85 -226 -169 -103
-177 -54 -405 128 -605 99 -108 357 -293 409 -293 48 0 302 175 393 272 199
209 254 441 148 625 -31 53 -96 117 -142 139 -130 62 -247 48 -357 -41 l-40
-33 -35 30 c-42 35 -94 63 -135 72 -38 8 -103 15 -107 11z m130 -149 c18 -9
49 -39 70 -66 59 -79 94 -79 154 0 107 141 297 116 371 -49 16 -34 21 -66 21
-122 0 -70 -3 -84 -41 -161 -65 -130 -184 -250 -355 -356 -45 -28 -73 -39 -85
-35 -61 23 -242 162 -317 244 -33 37 -74 98 -98 146 -38 76 -41 89 -42 165 0
66 4 91 21 123 43 80 98 123 172 134 50 8 80 2 129 -23z"/>
</g>
</svg>
