<svg xmlns="http://www.w3.org/2000/svg" xml:space="preserve" width="186px" height="191px" version="1.1" shape-rendering="geometricPrecision" text-rendering="geometricPrecision" image-rendering="optimizeQuality" fill-rule="evenodd" clip-rule="evenodd" viewBox="0 0 1860 1910" xmlns:xlink="http://www.w3.org/1999/xlink"><path fill-rule="nonzero" d="M454 529c-8,0 -15,-2 -22,-6l-414 -251c-19,-12 -26,-38 -14,-58 12,-19 37,-26 57,-14l414 251c20,12 26,38 14,58 -7,13 -21,20 -35,20zm952 0c-14,0 -28,-7 -35,-20 -12,-20 -6,-46 14,-58l414 -251c20,-12 45,-5 57,14 12,20 5,46 -14,58l-414 251c-7,4 -14,6 -22,6zm-787 1383c-5,0 -10,-1 -15,-3 -16,-7 -26,-22 -26,-39l0 -754c0,-23 19,-42 41,-42 23,0 42,19 42,42l0 653 225 -228c16,-16 41,-16 57,-1l256 235 0 -492c0,-23 19,-42 42,-42 22,0 41,19 41,42l0 587c0,16 -10,31 -25,38 -15,7 -32,4 -44,-7l-296 -273 -268 271c-8,8 -19,13 -30,13zm314 -629c-69,0 -128,-42 -151,-108l-3 -10c-14,-42 -64,-64 -105,-45l-9 4c-73,35 -161,7 -203,-61 -29,-48 -32,-104 -7,-156l4 -9c10,-20 10,-42 2,-63 -8,-20 -24,-36 -45,-43l-9 -4c-64,-24 -105,-84 -105,-153 1,-69 43,-128 108,-151l9 -3c21,-8 37,-23 46,-43 8,-21 8,-43 -1,-63l-5 -9c-23,-51 -20,-108 10,-155 43,-67 132,-94 205,-59l9 5c40,19 90,-2 105,-43l4 -10c23,-64 82,-106 149,-106 70,0 129,43 151,109l4 9c14,42 64,64 104,45l9 -4c73,-34 161,-6 203,62 30,47 33,104 8,155l-4 9c-10,20 -11,43 -2,63 8,21 24,36 44,44l10 3c64,24 105,84 105,153 -1,70 -43,129 -108,152l-9 3c-21,7 -37,22 -46,43 -8,20 -8,43 1,63l4 9c24,51 20,107 -9,154 -43,68 -132,95 -205,59l-9 -4c-40,-20 -91,1 -106,43l-3 9c-23,65 -82,106 -150,106zm-226 -254l0 0c68,0 128,44 150,109l4 9c13,39 46,53 72,53 26,0 59,-14 72,-51l4 -10c23,-63 83,-106 150,-106 24,0 47,6 69,16l9 5c36,18 78,4 99,-29 8,-13 20,-40 4,-74l-4 -9c-19,-41 -20,-89 -2,-131 18,-42 52,-74 95,-89l9 -4c38,-13 51,-46 52,-72 0,-27 -13,-60 -51,-74l-9 -3c-42,-16 -76,-49 -93,-91 -17,-43 -15,-90 4,-131l5 -9c16,-34 5,-62 -4,-75 -20,-33 -62,-47 -98,-30l-9 4c-21,10 -44,15 -67,15 -68,0 -128,-43 -151,-108l-3 -10c-13,-38 -46,-52 -73,-52 -25,0 -58,13 -72,51l-3 9c-23,64 -83,106 -150,106 -24,0 -48,-5 -70,-16l-8 -4c-37,-18 -78,-5 -99,29 -9,13 -20,40 -5,73l5 9c19,42 19,90 2,131 -18,42 -52,75 -95,90l-9 3c-38,13 -52,46 -52,73 0,26 13,60 50,73l10 4c42,16 76,49 93,91 17,42 15,90 -5,131l-4 9c-16,34 -5,61 3,75 21,33 62,46 98,29l9 -4c22,-10 44,-15 68,-15z"/></svg>