<svg xmlns="http://www.w3.org/2000/svg" xml:space="preserve" width="192px" height="146px" version="1.1" shape-rendering="geometricPrecision" text-rendering="geometricPrecision" image-rendering="optimizeQuality" fill-rule="evenodd" clip-rule="evenodd" viewBox="0 0 1920 1460" xmlns:xlink="http://www.w3.org/1999/xlink"><path fill-rule="nonzero" d="M1710 876l-292 0 0 -83 292 0 0 83zm-417 0l-291 0 0 -83 291 0 0 83zm-416 0l-292 0 0 -83 292 0 0 83zm-417 0l-292 0 0 -83 292 0 0 83zm1417 -292l-1834 0c-23,0 -41,-19 -41,-42 0,-23 18,-41 41,-41l1834 0c23,0 41,18 41,41 0,23 -18,42 -41,42zm-167 -250l-1667 0c-23,0 -41,-19 -41,-42 0,-23 18,-41 41,-41l1667 0c23,0 42,18 42,41 0,23 -19,42 -42,42zm21 1125l-1542 0c-103,0 -187,-84 -187,-187l0 -104c0,-23 18,-42 41,-42 23,0 42,19 42,42l0 104c0,58 47,104 104,104l1542 0c57,0 104,-46 104,-104l0 -104c0,-23 19,-42 42,-42 23,0 41,19 41,42l0 104c0,103 -84,187 -187,187zm0 -166l-1542 0c-103,0 -187,-84 -187,-187l0 -918c0,-103 84,-187 187,-187l1542 0c103,0 187,84 187,187l0 918c0,103 -84,187 -187,187zm-1542 -1209l0 0c-57,0 -104,46 -104,104l0 918c0,57 47,103 104,103l1542 0c57,0 104,-46 104,-103l0 -918c0,-58 -47,-104 -104,-104l-1542 0z"/></svg>