<svg xmlns="http://www.w3.org/2000/svg" xml:space="preserve" width="86px" height="85px" version="1.1" shape-rendering="geometricPrecision" text-rendering="geometricPrecision" image-rendering="optimizeQuality" fill-rule="evenodd" clip-rule="evenodd" viewBox="0 0 860 850" xmlns:xlink="http://www.w3.org/1999/xlink"><path fill-rule="nonzero" d="M166 52c1,0 2,0 3,0 15,22 96,143 111,166 0,2 -1,8 -5,17 -5,9 -20,36 -42,74l-17 29 20 28c14,20 49,65 118,133 69,68 115,102 135,116l28 20 30 -17c29,-16 64,-36 75,-42 9,-4 15,-5 17,-5 0,0 0,0 1,0 20,13 146,95 168,110 1,2 0,7 -4,13 -34,47 -82,95 -101,102 -101,-4 -243,-92 -400,-246 -158,-155 -247,-294 -251,-394 6,-19 56,-67 103,-100 3,-3 7,-4 11,-4zm0 -52l0 0c-14,0 -29,5 -42,14 -1,1 -128,90 -126,141 4,145 147,315 267,432 119,118 291,258 439,263l1 0c52,0 142,-124 143,-125 24,-34 15,-71 -6,-86 -14,-9 -158,-103 -176,-114 -8,-5 -17,-7 -27,-7 -13,0 -28,4 -42,11 -14,8 -56,31 -77,43 -18,-13 -61,-45 -128,-111 -67,-66 -99,-108 -112,-126 11,-20 35,-62 42,-75 14,-26 16,-52 5,-69 -11,-17 -107,-158 -117,-171 -9,-13 -26,-20 -44,-20z"/></svg>