<svg xmlns="http://www.w3.org/2000/svg" xml:space="preserve" width="99px" height="66px" version="1.1" shape-rendering="geometricPrecision" text-rendering="geometricPrecision" image-rendering="optimizeQuality" fill-rule="evenodd" clip-rule="evenodd" viewBox="0 0 990 660" xmlns:xlink="http://www.w3.org/1999/xlink"><path fill-rule="nonzero" d="M917 54c17,0 16,-2 16,15l0 491c0,17 1,46 -16,46l-814 0c-18,0 -47,-29 -47,-46l0 -491c0,-17 29,-15 47,-15l798 0 16 0zm-6 -53l0 0 -801 0c-51,0 -108,25 -108,75l0 478c0,50 57,105 108,105l801 0c51,0 77,-55 77,-105l0 -478c0,-50 -26,-75 -77,-75z"/><path fill-rule="nonzero" d="M495 427c-7,0 -14,-2 -20,-7l-455 -337c-12,-10 -14,-28 -3,-40 11,-12 31,-13 43,-3l435 322 435 -322c12,-10 32,-9 43,3 11,12 9,30 -3,40l-455 337c-6,5 -13,7 -20,7z"/></svg>