<svg xmlns="http://www.w3.org/2000/svg" xml:space="preserve" width="120px" height="183px" version="1.1" shape-rendering="geometricPrecision" text-rendering="geometricPrecision" image-rendering="optimizeQuality" fill-rule="evenodd" clip-rule="evenodd" viewBox="0 0 1200 1830" xmlns:xlink="http://www.w3.org/1999/xlink"><path fill-rule="nonzero" d="M294 1832l-254 0c-23,0 -42,-19 -42,-42l0 -333c0,-23 19,-42 42,-42l254 0c23,0 42,19 42,42l0 333c0,23 -19,42 -42,42zm-211 -83l0 0 169 0 0 -251 -169 0 0 251zm84 -251c-23,0 -42,-18 -42,-41l0 -1417c0,-23 19,-42 42,-42 23,0 42,19 42,42l0 1417c0,23 -19,41 -42,41zm708 -1021c-16,0 -30,-8 -38,-22 -11,-20 -3,-46 18,-56l131 -67 -734 0c-24,0 -43,-19 -43,-42 0,-23 19,-42 43,-42l908 0c19,0 36,13 41,32 4,19 -5,38 -22,47l-285 146c-6,3 -13,4 -19,4zm285 313l-951 0c-23,0 -42,-19 -42,-42 0,-23 19,-41 42,-41l769 0 -439 -213c-21,-10 -29,-35 -19,-56 10,-20 35,-29 56,-19l602 292c18,8 27,28 23,47 -5,19 -22,32 -41,32z"/></svg>