<svg xmlns="http://www.w3.org/2000/svg" xml:space="preserve" width="174px" height="188px" version="1.1" shape-rendering="geometricPrecision" text-rendering="geometricPrecision" image-rendering="optimizeQuality" fill-rule="evenodd" clip-rule="evenodd" viewBox="0 0 1740 1880" xmlns:xlink="http://www.w3.org/1999/xlink"><path fill-rule="nonzero" d="M16 1878c-8,0 -14,-1 -17,-2l10 -40 6 -41c6,-2 419,-17 588,-354l76 37c-174,345 -572,400 -663,400zm962 -878c-93,0 -168,-75 -168,-167 0,-93 75,-168 168,-168 93,0 168,75 168,168 0,92 -75,167 -168,167zm0 -251l0 0c-46,0 -84,38 -84,84 0,46 38,83 84,83 46,0 84,-37 84,-83 0,-46 -38,-84 -84,-84zm2 961c-45,0 -85,-25 -103,-67l-145 -325c-5,-11 -15,-18 -27,-18l-359 39c-49,5 -92,-19 -114,-61 -19,-38 -15,-83 10,-117l212 -287c7,-11 7,-24 0,-35l-212 -287c-25,-34 -29,-79 -10,-117 22,-42 65,-66 114,-61l356 38c16,1 25,-6 30,-17l145 -325c18,-42 58,-68 103,-68 46,0 86,26 104,68l145 325c4,11 15,17 26,17l360 -38c49,-5 92,19 114,61 19,38 15,83 -10,117l-212 287c-7,11 -7,24 0,35l212 287c25,34 29,79 10,117 -22,42 -65,66 -114,61l-356 -38c-15,-1 -25,6 -30,17l-145 325c-18,42 -58,67 -104,67zm-275 -493l0 0c45,0 86,26 104,67l145 326c7,15 21,17 26,17 6,0 20,-2 27,-17l145 -326c20,-45 66,-72 116,-67l356 39c19,0 28,-12 29,-16 3,-5 7,-17 -2,-30l-212 -287c-29,-40 -29,-93 0,-133l212 -287c9,-13 5,-26 2,-30 -1,-4 -9,-16 -25,-16l-360 38c-49,6 -96,-22 -116,-66l-145 -326c-7,-15 -21,-17 -27,-17 -5,0 -19,2 -26,17l-145 326c-20,44 -66,72 -116,66l-356 -38c-19,-1 -28,12 -30,16 -2,4 -7,17 3,30l212 287c29,40 29,93 0,133l-212 287c-10,13 -5,25 -3,30 2,4 10,16 26,16l360 -39c4,0 8,0 12,0z"/></svg>