<svg xmlns="http://www.w3.org/2000/svg" xml:space="preserve" width="325px" height="208px" version="1.1" shape-rendering="geometricPrecision" text-rendering="geometricPrecision" image-rendering="optimizeQuality" fill-rule="evenodd" clip-rule="evenodd" viewBox="0 0 3250 2080" xmlns:xlink="http://www.w3.org/1999/xlink"><path fill-rule="nonzero" d="M3212 260l-82 0c-19,-147 -142,-262 -291,-262 -149,0 -273,115 -291,262l-83 0c-21,0 -38,18 -38,39l0 208c0,21 17,39 38,39l80 0 0 99 -154 0 0 -199c0,-21 -17,-39 -38,-39 -21,0 -38,18 -38,39l0 137c-39,-38 -94,-84 -167,-128l0 -126c0,-21 -17,-39 -38,-39 -21,0 -38,18 -38,39l0 85c-49,-23 -104,-44 -166,-61l0 -102c0,-21 -17,-39 -38,-39 -21,0 -38,18 -38,39l0 85c-52,-10 -108,-16 -167,-18l0 -195c0,-21 -17,-39 -38,-39 -21,0 -38,18 -38,39l0 195c-59,2 -115,8 -167,18l0 -85c0,-21 -17,-39 -38,-39 -21,0 -38,18 -38,39l0 102c-62,17 -117,38 -166,61l0 -85c0,-21 -17,-39 -38,-39 -21,0 -38,18 -38,39l0 126c-73,44 -128,90 -167,128l0 -137c0,-21 -17,-39 -38,-39 -21,0 -38,18 -38,39l0 199 -154 0 0 -99 80 0c21,0 38,-18 38,-39l0 -208c0,-21 -17,-39 -38,-39l-83 0c-18,-147 -142,-262 -291,-262 -149,0 -272,115 -291,262l-82 0c-21,0 -38,18 -38,39l0 208c0,21 17,39 38,39l80 0 0 1497c0,21 17,39 38,39l511 0c21,0 38,-18 38,-39l0 -76 1840 0 0 76c0,21 17,39 38,39l511 0c21,0 38,-18 38,-39l0 -1497 80 0c21,0 38,-18 38,-39l0 -208c0,-21 -17,-39 -38,-39zm-2801 -184l0 0c107,0 197,80 215,184l-429 0c18,-104 107,-184 214,-184zm218 815l0 0 -112 0c-21,0 -38,18 -38,39 0,22 17,39 38,39l112 0 0 373 -112 0c-21,0 -38,18 -38,39 0,22 17,39 38,39l112 0 0 373 -112 0c-21,0 -38,18 -38,39 0,22 17,39 38,39l112 0 0 133 -435 0 0 -358 112 0c21,0 38,-18 38,-39 0,-22 -17,-39 -38,-39l-112 0 0 -373 112 0c21,0 38,-18 38,-39 0,-22 -17,-39 -38,-39l-112 0 0 -373 112 0c21,0 38,-18 38,-39 0,-22 -17,-39 -38,-39l-112 0 0 -120 435 0 0 345 0 0zm-553 -423l0 0 0 -130 671 0 0 130 -671 0zm783 1421l0 0 -154 0 0 -96 154 0 0 96 0 0zm0 -174l0 0 -154 0 0 -828 154 0 0 828 0 0zm0 -906l0 0 -154 0 0 -86 154 0 0 86 0 0zm243 1080l0 0 -167 0 0 -96 167 0 0 96zm0 -174l0 0 -167 0 0 -853c18,-24 73,-87 167,-150l0 1003zm0 -1096l0 0c-73,43 -128,90 -167,128l0 -49c18,-24 73,-87 167,-150l0 71zm561 -223l0 0c60,2 115,9 167,20l0 84c-52,-10 -108,-16 -167,-18l0 -86zm167 184l0 0 0 471 -167 0 0 -491c60,2 115,9 167,20zm0 656l0 0 -410 0 0 -107 410 0 0 107zm-410 -820l0 0c52,-11 107,-18 167,-20l0 86c-59,2 -115,8 -167,18l0 -84zm167 144l0 0 0 491 -167 0 0 -471c52,-11 107,-18 167,-20zm-409 -58l0 0c48,-25 103,-49 166,-67l0 82c-62,17 -117,38 -166,61l0 -76zm166 1387l0 0 -166 0 0 -96 166 0 0 96zm0 -174l0 0 -166 0 0 -1049c48,-25 103,-49 166,-67l0 1116zm243 174l0 0 -167 0 0 -96 167 0 0 96zm-167 -174l0 0 0 -401 167 0 0 401 -167 0zm410 174l0 0 -167 0 0 -96 167 0 0 96zm-167 -174l0 0 0 -401 167 0 0 401 -167 0zm409 174l0 0 -166 0 0 -96 166 0 0 96zm0 -174l0 0 -166 0 0 -1116c63,18 118,42 166,68l0 1048zm0 -1137l0 0c-49,-23 -104,-44 -166,-61l0 -82c63,18 118,42 166,68l0 75zm243 1311l0 0 -167 0 0 -96 167 0 0 96zm0 -174l0 0 -167 0 0 -1003c94,63 149,126 167,150l0 853zm0 -968l0 0c-39,-38 -94,-85 -167,-128l0 -71c94,63 149,126 167,150l0 49zm230 1142l0 0 -154 0 0 -96 154 0 0 96zm0 -174l0 0 -154 0 0 -828 154 0 0 828zm0 -906l0 0 -154 0 0 -86 154 0 0 86zm294 -733l0 0c107,0 196,80 214,184l-429 0c18,-104 108,-184 215,-184zm217 590l0 0 -112 0c-21,0 -38,17 -38,39 0,21 17,39 38,39l112 0 0 373 -112 0c-21,0 -38,17 -38,39 0,21 17,39 38,39l112 0 0 373 -112 0c-21,0 -38,17 -38,39 0,21 17,39 38,39l112 0 0 358 -435 0 0 -133 112 0c21,0 38,-17 38,-39 0,-21 -17,-39 -38,-39l-112 0 0 -373 112 0c21,0 38,-17 38,-39 0,-21 -17,-39 -38,-39l-112 0 0 -373 112 0c21,0 38,-17 38,-39 0,-21 -17,-39 -38,-39l-112 0 0 -345 435 0 0 120zm118 -198l0 0 -671 0 0 -130 671 0 0 130z"/></svg>