<svg xmlns="http://www.w3.org/2000/svg" xml:space="preserve" width="283px" height="316px" version="1.1" shape-rendering="geometricPrecision" text-rendering="geometricPrecision" image-rendering="optimizeQuality" fill-rule="evenodd" clip-rule="evenodd" viewBox="0 0 2830 3161" xmlns:xlink="http://www.w3.org/1999/xlink"><path fill-rule="nonzero" d="M2125 650c8,5 18,7 28,7 10,0 20,-2 29,-7 129,-71 222,-151 277,-238 63,-100 60,-184 46,-237 -26,-103 -114,-175 -213,-175 -51,0 -99,20 -139,55 -39,-35 -87,-55 -138,-55 -100,0 -187,72 -214,175 -13,53 -16,137 47,237 54,87 147,167 277,238zm-208 -446l0 0c13,-48 54,-84 98,-84 33,0 64,21 87,59 11,18 30,29 51,29l0 0c21,0 41,-11 51,-29 24,-38 54,-59 88,-59 44,0 85,36 97,84 20,80 -32,205 -236,324 -203,-119 -256,-244 -236,-324zm-748 1552c-156,0 -294,114 -335,276 -22,85 -26,222 76,386 93,148 253,285 476,406 9,5 19,8 29,8 10,0 20,-3 29,-8 222,-121 383,-258 476,-406 102,-164 98,-301 76,-386 -41,-162 -179,-276 -335,-276 -93,0 -179,41 -246,116 -67,-75 -153,-116 -246,-116zm711 305l0 0c20,79 44,354 -465,642 -509,-288 -485,-563 -465,-642 27,-107 119,-185 219,-185 76,0 145,45 195,128 11,18 30,29 51,29l0 0c21,0 40,-11 51,-29 50,-83 119,-128 195,-128 100,0 192,78 219,185zm927 -357l-409 -314c1,-4 1,-8 1,-12l0 -544c0,-33 -27,-60 -60,-60l-372 0c-33,0 -60,27 -60,60l0 178 -456 -350c-21,-16 -51,-16 -72,0l-1356 1042c-20,16 -28,42 -20,67 8,24 31,40 57,40l371 0 0 1092c0,142 115,258 257,258l1454 0c142,0 257,-116 257,-258l0 -1092 371 0c26,0 49,-16 57,-40 8,-25 0,-51 -20,-67zm-780 -810l0 0 253 0 0 405 -253 -194 0 -211zm253 2009l0 0c0,76 -62,138 -138,138l-1454 0c-76,0 -138,-62 -138,-138l0 -1122 865 -655 865 655 0 1122 0 0zm80 -1211l0 0 -909 -689c-21,-16 -51,-16 -72,0l-909 689 -234 0 1179 -907 1179 907 -234 0 0 0z"/></svg>