<svg xmlns="http://www.w3.org/2000/svg" xml:space="preserve" width="97px" height="131px" version="1.1" shape-rendering="geometricPrecision" text-rendering="geometricPrecision" image-rendering="optimizeQuality" fill-rule="evenodd" clip-rule="evenodd" viewBox="0 0 970 1310" xmlns:xlink="http://www.w3.org/1999/xlink"><path fill-rule="nonzero" d="M159 396c-7,2 -15,1 -22,-3 -13,-8 -18,-25 -10,-39l71 -122c8,-13 25,-18 39,-10 13,7 18,25 10,38l-71 122c-4,7 -10,12 -17,14zm88 96c-7,2 -15,1 -22,-2 -13,-8 -18,-25 -10,-39l128 -220c8,-14 25,-18 39,-10 13,7 18,25 10,38l-128 220c-4,7 -10,11 -17,13zm413 598c-8,-30 -39,-48 -69,-40 -30,8 -48,39 -40,69 8,30 39,48 69,40 30,-8 48,-39 40,-69zm220 87l-476 127c-65,18 -133,-21 -150,-86l-251 -935c-17,-65 22,-132 87,-150l476 -127c65,-18 133,21 150,86l251 935c17,65 -22,132 -87,150zm-775 -989l0 0c-35,9 -56,45 -47,80l251 936c9,35 45,55 80,46l476 -128c35,-9 56,-45 47,-80l-251 -936c-9,-35 -45,-55 -80,-46l-476 128zm725 769l-466 124c-15,5 -31,-4 -35,-19 -4,-15 5,-31 21,-35l438 -118 -109 -408c-4,-15 5,-31 20,-35 15,-4 31,5 35,20l116 436c4,15 -5,31 -20,35z"/></svg>