<svg xmlns="http://www.w3.org/2000/svg" xml:space="preserve" width="137px" height="221px" version="1.1" shape-rendering="geometricPrecision" text-rendering="geometricPrecision" image-rendering="optimizeQuality" fill-rule="evenodd" clip-rule="evenodd" viewBox="0 0 1370 2210" xmlns:xlink="http://www.w3.org/1999/xlink"><path fill-rule="nonzero" d="M1233 213c-121,-141 -306,-212 -548,-212 -242,0 -427,71 -548,212 -121,141 -139,307 -139,393l0 998c0,86 18,252 139,393 121,141 306,212 548,212 242,0 427,-71 548,-212 121,-141 139,-307 139,-393l0 -998c0,-86 -18,-252 -139,-393zm-548 557l0 0c-50,0 -91,-40 -91,-90l0 -193c0,-50 41,-90 91,-90 50,0 91,40 91,90l0 193c0,50 -41,90 -91,90zm615 834l0 0c0,89 -29,534 -615,534 -586,0 -615,-445 -615,-534l0 -998c0,-87 28,-515 579,-533l0 256c-73,17 -127,81 -127,158l0 193c0,77 54,141 127,157l0 293c0,20 16,36 36,36 20,0 36,-16 36,-36l0 -293c73,-16 127,-80 127,-157l0 -193c0,-77 -54,-141 -127,-158l0 -256c551,18 579,446 579,533l0 998z"/></svg>