<svg xmlns="http://www.w3.org/2000/svg" xml:space="preserve" width="250px" height="192px" version="1.1" shape-rendering="geometricPrecision" text-rendering="geometricPrecision" image-rendering="optimizeQuality" fill-rule="evenodd" clip-rule="evenodd" viewBox="0 0 2500 1920" xmlns:xlink="http://www.w3.org/1999/xlink"><path fill-rule="nonzero" d="M2269 1832c-104,0 -208,0 -311,0 4,-5 8,-11 11,-17 19,-35 13,-80 13,-119 56,-20 96,-74 96,-138l0 -307c0,-66 -43,-121 -101,-140l-155 -410c-27,-70 -106,-126 -181,-126l-782 0c-75,0 -154,56 -181,126l-155 410c-58,19 -101,74 -101,140l0 307c0,65 42,120 100,140 0,38 -6,82 13,117 3,6 7,12 11,17 -13,0 -26,0 -39,0 -83,0 -166,0 -249,0 -56,0 -56,87 0,87 587,0 1174,0 1762,0 83,0 166,0 249,0 56,0 56,-87 0,-87zm-439 -126l0 0 66 0c2,33 9,85 -33,85 -42,0 -35,-52 -33,-85zm-1071 -974l0 0c14,-37 61,-70 100,-70l782 0c39,0 86,33 100,70l140 371 -76 0 -92 -271c-25,-72 -103,-128 -179,-128l-568 0c-76,0 -154,56 -179,128l-93 271 -75 0 140 -371zm955 371l0 0 -929 0 84 -242c13,-37 58,-70 97,-70l568 0c39,0 84,33 97,70l83 242zm-1206 148l0 0c0,-34 27,-61 60,-61l1364 0c33,0 60,27 60,61l0 307c0,34 -27,61 -60,61l-1364 0c-33,0 -60,-27 -60,-61l0 -307zm133 540l0 0c-42,0 -35,-52 -33,-85l65 0c3,33 10,85 -32,85zm106 24l0 0c17,-33 13,-73 12,-109l985 0c-1,36 -4,76 13,109 3,6 7,12 12,17 -345,0 -689,0 -1034,0 4,-5 8,-11 12,-17zm1732 -1102c-343,-209 -685,-419 -1028,-628 -44,-28 -91,-64 -142,-77 -84,-22 -151,10 -219,51 -189,116 -379,232 -568,348 -167,102 -334,204 -501,306 -47,29 -4,104 44,75 333,-204 667,-408 1000,-612 38,-23 77,-53 118,-72 85,-39 141,5 209,46 190,117 381,233 572,350 157,96 314,192 471,288 48,29 91,-46 44,-75zm-772 869c98,4 172,-71 183,-165 1,-4 1,-8 1,-13 0,-6 -1,-12 -3,-17 -12,-88 -80,-160 -173,-160 -96,0 -177,81 -177,177 0,94 77,174 169,178zm98 -178l0 0c-7,116 -180,117 -180,0 0,-117 173,-116 180,0zm-1027 178c97,4 171,-71 182,-165 1,-4 1,-8 1,-13 0,-6 -1,-12 -2,-17 -13,-88 -81,-160 -174,-160 -96,0 -176,81 -176,177 0,94 76,174 169,178zm97 -178l0 0c-7,116 -180,117 -180,0 0,-117 173,-116 180,0zm36 -525c-21,60 -42,120 -63,180 -10,32 39,46 50,14 21,-60 42,-120 63,-180 11,-32 -39,-46 -50,-14z"/></svg>