<svg xmlns="http://www.w3.org/2000/svg" xml:space="preserve" width="150px" height="188px" version="1.1" shape-rendering="geometricPrecision" text-rendering="geometricPrecision" image-rendering="optimizeQuality" fill-rule="evenodd" clip-rule="evenodd" viewBox="0 0 1500 1880" xmlns:xlink="http://www.w3.org/1999/xlink"><path fill-rule="nonzero" d="M1208 794l-291 0 0 -83 291 0 0 83zm-458 167c-115,0 -208,-94 -208,-209 0,-114 93,-208 208,-208 115,0 208,94 208,208 0,115 -93,209 -208,209zm0 -334l0 0c-69,0 -125,57 -125,125 0,69 56,125 125,125 69,0 125,-56 125,-125 0,-68 -56,-125 -125,-125zm0 626l0 -84c230,0 417,-187 417,-417 0,-229 -187,-416 -417,-416 -230,0 -417,187 -417,416l-83 0c0,-275 224,-500 500,-500 276,0 500,225 500,500 0,276 -224,501 -500,501zm0 625c-309,0 -750,-728 -750,-1126 0,-413 337,-750 750,-750 413,0 750,337 750,750 0,398 -441,1126 -750,1126zm0 -1792l0 0c-368,0 -667,299 -667,666 0,380 424,1042 667,1042 243,0 667,-662 667,-1042 0,-367 -299,-666 -667,-666z"/></svg>