<svg xmlns="http://www.w3.org/2000/svg" xml:space="preserve" width="183px" height="183px" version="1.1" shape-rendering="geometricPrecision" text-rendering="geometricPrecision" image-rendering="optimizeQuality" fill-rule="evenodd" clip-rule="evenodd" viewBox="0 0 1830 1830" xmlns:xlink="http://www.w3.org/1999/xlink"><path fill-rule="nonzero" d="M743 1242c-40,-24 -75,-57 -101,-95l68 -47c20,28 46,53 76,71l-43 71zm172 48l0 -83c138,0 250,-112 250,-250 0,-138 -112,-250 -250,-250 -138,0 -250,112 -250,250l-83 0c0,-184 149,-334 333,-334 184,0 333,150 333,334 0,183 -149,333 -333,333zm0 542c-111,0 -202,-87 -208,-197 -53,-15 -105,-37 -154,-64 -82,73 -208,71 -286,-8 -79,-78 -81,-204 -8,-286 -27,-49 -48,-100 -64,-154 -109,-6 -197,-97 -197,-208 0,-111 88,-202 197,-208 16,-54 37,-105 64,-154 -73,-82 -71,-208 8,-286 78,-79 204,-81 286,-8 49,-27 101,-49 154,-64 6,-110 97,-197 208,-197 111,0 202,87 208,197 54,15 105,37 154,64 82,-73 208,-71 286,8 79,78 81,204 8,286 27,49 48,100 64,154 109,6 197,97 197,208 0,115 -94,208 -209,208l0 -83c69,0 125,-56 125,-125 0,-69 -56,-125 -125,-125l-53 0 -8 -32c-16,-67 -42,-131 -78,-190l-18 -28 38 -38c49,-48 49,-128 0,-176 -49,-49 -128,-49 -177,0l-37 37 -28 -17c-59,-36 -123,-62 -190,-78l-32 -8 0 -53c0,-69 -56,-125 -125,-125 -69,0 -125,56 -125,125l0 53 -32 8c-67,16 -131,42 -190,78l-28 17 -37 -37c-49,-49 -128,-49 -177,0 -49,48 -49,128 0,176l38 38 -18 28c-36,59 -62,123 -78,190l-8 32 -53 0c-69,0 -125,56 -125,125 0,69 56,125 125,125l53 0 8 32c16,67 42,131 78,190l18 28 -38 38c-49,48 -49,128 0,176 49,49 128,49 177,0l37 -37 28 17c59,36 123,62 190,78l32 8 0 53c0,69 56,125 125,125 69,0 125,-56 125,-125l0 -53 32 -8c67,-16 131,-42 190,-78l28 -17 37 37c49,49 128,49 177,0 49,-48 49,-128 0,-176l-7 -8 -8 -25 67 -19 7 -7c1,1 3,2 4,3l2 0 2 5c73,81 71,208 -8,286 -78,79 -204,81 -286,8 -49,27 -100,49 -154,64 -6,110 -97,197 -208,197z"/></svg>