<svg xmlns="http://www.w3.org/2000/svg" xml:space="preserve" width="192px" height="192px" version="1.1" shape-rendering="geometricPrecision" text-rendering="geometricPrecision" image-rendering="optimizeQuality" fill-rule="evenodd" clip-rule="evenodd" viewBox="0 0 1920 1920" xmlns:xlink="http://www.w3.org/1999/xlink"><path fill-rule="nonzero" d="M1608 1650c-11,0 -21,-4 -29,-12l-177 -177c-16,-16 -16,-43 0,-59 16,-16 43,-16 59,0l177 177c16,16 16,42 0,59 -9,8 -19,12 -30,12zm-1119 -1120c-11,0 -22,-4 -30,-12l-177 -177c-16,-16 -16,-43 0,-59 17,-16 43,-16 59,0l177 177c16,16 16,43 0,59 -8,8 -19,12 -29,12zm1388 472l-250 0c-23,0 -42,-19 -42,-42 0,-23 19,-42 42,-42l250 0c23,0 41,19 41,42 0,23 -18,42 -41,42zm-1584 0l-250 0c-23,0 -41,-19 -41,-42 0,-23 18,-42 41,-42l250 0c23,0 42,19 42,42 0,23 -19,42 -42,42zm1138 -472c-10,0 -21,-4 -29,-12 -16,-16 -16,-43 0,-59l177 -177c16,-16 42,-16 59,0 16,16 16,43 0,59l-177 177c-8,8 -19,12 -30,12zm-1119 1120c-11,0 -21,-4 -30,-12 -16,-17 -16,-43 0,-59l177 -177c16,-16 43,-16 59,0 16,16 16,43 0,59l-177 177c-8,8 -18,12 -29,12zm648 269c-23,0 -42,-19 -42,-42l0 -250c0,-23 19,-42 42,-42 23,0 42,19 42,42l0 250c0,23 -19,42 -42,42zm0 -1584c-23,0 -42,-19 -42,-42l0 -250c0,-23 19,-42 42,-42 23,0 42,19 42,42l0 250c0,23 -19,42 -42,42zm-250 625l-83 0c0,-184 149,-333 333,-333l0 83c-138,0 -250,112 -250,250zm250 542c-299,0 -542,-243 -542,-542 0,-299 243,-542 542,-542 299,0 542,243 542,542 0,75 -16,148 -46,217l-76 -34c25,-57 38,-119 38,-183 0,-253 -205,-458 -458,-458 -253,0 -458,205 -458,458 0,253 205,458 458,458 67,0 131,-14 191,-41l35 76c-71,32 -147,49 -226,49z"/></svg>