<svg xmlns="http://www.w3.org/2000/svg" xml:space="preserve" width="296px" height="167px" version="1.1" shape-rendering="geometricPrecision" text-rendering="geometricPrecision" image-rendering="optimizeQuality" fill-rule="evenodd" clip-rule="evenodd" viewBox="0 0 2960 1670" xmlns:xlink="http://www.w3.org/1999/xlink"><path fill-rule="nonzero" d="M1110 1163l-232 0c-24,0 -43,20 -43,44 0,24 19,43 43,43l232 0c24,0 43,-19 43,-43 0,-24 -19,-44 -43,-44zm324 0l-93 0c-24,0 -43,20 -43,44 0,24 19,43 43,43l93 0c24,0 43,-19 43,-43 0,-24 -19,-44 -43,-44zm787 0l-602 0c-24,0 -43,20 -43,44 0,24 19,43 43,43l602 0c24,0 43,-19 43,-43 0,-24 -19,-44 -43,-44zm-1250 -232c-24,0 -44,19 -44,43 0,24 20,44 44,44l1065 0c24,0 43,-20 43,-44 0,-24 -19,-43 -43,-43l-1065 0zm1343 0l-93 0c-24,0 -43,19 -43,43 0,24 19,44 43,44l93 0c24,0 43,-20 43,-44 0,-24 -19,-43 -43,-43zm324 0l-139 0c-24,0 -44,19 -44,43 0,24 20,44 44,44l139 0c24,0 43,-20 43,-44 0,-24 -19,-43 -43,-43zm-1714 -145l139 0c24,0 44,-20 44,-44 0,-24 -20,-43 -44,-43l-139 0c-24,0 -43,19 -43,43 0,24 19,44 43,44zm324 0l834 0c24,0 43,-20 43,-44 0,-24 -19,-43 -43,-43l-834 0c-23,0 -43,19 -43,43 0,24 20,44 43,44zm1158 -87l-139 0c-24,0 -43,19 -43,43 0,24 19,44 43,44l139 0c24,0 44,-20 44,-44 0,-24 -20,-43 -44,-43zm-1898 585c28,-83 43,-193 43,-310 0,-67 -5,-132 -15,-193 -4,-23 -26,-39 -50,-35 -24,3 -40,26 -36,50 9,55 14,115 14,178 0,258 -73,375 -95,375 -5,0 -25,-11 -48,-66 -9,-22 -34,-33 -56,-24 -23,9 -33,35 -24,57 41,99 92,120 128,120 40,0 97,-26 139,-152zm-227 -175c-5,-43 -8,-88 -8,-135 0,-257 73,-374 96,-374 24,0 43,-20 43,-44 0,-24 -19,-43 -43,-43 -41,0 -98,26 -140,152 -27,83 -43,193 -43,309 0,50 3,99 8,145 3,22 22,38 44,38 1,0 3,0 5,0 23,-3 41,-24 38,-48zm2310 -829l-926 0c-2,0 -3,0 -5,1l-129 -233c-16,-29 -46,-46 -78,-46l-153 0c-25,0 -50,11 -67,30 -17,19 -25,44 -22,70l20 178 -862 0c-206,0 -368,305 -368,694 0,390 162,694 368,694l2222 0c207,0 368,-304 368,-694 0,-389 -161,-694 -368,-694zm-2413 1135l0 0c-58,-117 -90,-274 -90,-441 0,-167 32,-323 90,-440 53,-106 122,-167 191,-167 68,0 137,61 190,167 58,117 90,273 90,440 0,167 -32,324 -90,441 -53,106 -122,166 -190,166 -69,0 -138,-60 -191,-166zm2413 166l0 0 -2041 0c112,-117 186,-342 186,-607 0,-264 -74,-489 -186,-607l690 0 12 101c2,24 24,41 48,39 23,-3 41,-25 38,-49l-41 -366c0,0 0,-1 1,-2 1,-1 2,-1 2,-1l153 0c1,0 2,0 2,1l219 394c8,15 22,23 38,23 7,0 14,-2 21,-6 21,-11 28,-38 16,-59l-41 -75 883 0c69,0 138,61 191,167 58,117 90,273 90,440 0,167 -32,324 -90,441 -53,106 -122,166 -191,166z"/></svg>