<svg xmlns="http://www.w3.org/2000/svg" xml:space="preserve" width="200px" height="187px" version="1.1" shape-rendering="geometricPrecision" text-rendering="geometricPrecision" image-rendering="optimizeQuality" fill-rule="evenodd" clip-rule="evenodd" viewBox="0 0 2000 1870" xmlns:xlink="http://www.w3.org/1999/xlink"><path fill-rule="nonzero" d="M1000 706c-102,0 -185,-74 -185,-166 0,-92 83,-167 185,-167 102,0 185,75 185,167 0,92 -83,166 -185,166zm0 -249l0 0c-57,0 -102,37 -102,83 0,46 45,83 102,83 56,0 102,-37 102,-83 0,-46 -46,-83 -102,-83zm414 748l-249 0c-23,0 -41,-18 -41,-41 0,-23 18,-42 41,-42l249 0c23,0 41,19 41,42 0,23 -18,41 -41,41zm-953 666c-21,0 -39,-16 -41,-38l-83 -915c-1,-12 2,-23 10,-32 8,-8 19,-13 31,-13l1243 0c12,0 23,5 31,13 8,9 12,20 11,32l-83 915c-2,22 -20,38 -42,38l-911 0c-23,0 -42,-19 -42,-42l0 -665c0,-23 19,-42 42,-42l373 0c22,0 41,19 41,42l0 374c0,23 -19,42 -41,42 -23,0 -42,-19 -42,-42l0 -333 -290 0 0 583 832 0 76 -832 -1153 0 79 870c2,22 -15,43 -37,45 -2,0 -3,0 -4,0zm1160 -1206c-23,0 -41,-19 -41,-42l0 -416c0,-23 18,-42 41,-42 23,0 42,19 42,42l0 416c0,23 -19,42 -42,42zm336 291c0,0 -1,0 -1,0l-1913 0c-17,0 -32,-11 -39,-27 -6,-16 -1,-34 11,-46l957 -873c15,-15 40,-15 55,0l952 869c12,8 19,21 19,35 0,23 -18,42 -41,42zm-1807 -83l0 0 1699 0 -849 -776 -850 776z"/></svg>